<svg xmlns="http://www.w3.org/2000/svg" viewBox="0 0 32 32" id="favorite"><path d="M28,12.46a3,3,0,0,0-2.82-2.05H21.09a1,1,0,0,1-.94-.75L18.94,5.8a3,3,0,0,0-5.7,0L12,9.66a1,1,0,0,1-.95.75H7a3,3,0,0,0-2.81,2.05,3.13,3.13,0,0,0,1,3.54l3.38,2.69A1.2,1.2,0,0,1,8.93,20l-1.22,4a3.16,3.16,0,0,0,1.2,3.55,2.88,2.88,0,0,0,3.45-.09l3.16-2.44a.92.92,0,0,1,1.13,0l3.17,2.44a2.87,2.87,0,0,0,3.44.09,3.16,3.16,0,0,0,1.2-3.55l-1.21-4a1.18,1.18,0,0,1,.36-1.27L27,16A3.12,3.12,0,0,0,28,12.46Z" fill="#66ccff" class="color000000 svgShape"></path></svg>